<?xml version="1.0" encoding="utf-8"?>
<!-- Generator: Adobe Illustrator 22.0.0, SVG Export Plug-In . SVG Version: 6.00 Build 0)  -->
<svg version="1.1" xmlns="http://www.w3.org/2000/svg" xmlns:xlink="http://www.w3.org/1999/xlink" x="0px" y="0px"
	 viewBox="0 0 2560 1440" style="enable-background:new 0 0 2560 1440;" xml:space="preserve">
<style type="text/css">
	.st0{fill:#06062B;}
	.st1{fill:url(#SVGID_1_);}
	.st2{opacity:0.55;fill:url(#base_1_);}
	.st3{opacity:0.5;fill:#FFAFCB;}
	.st4{opacity:0.85;fill:#FFFFFF;stroke:#FFFFFF;stroke-width:20;stroke-linecap:round;stroke-miterlimit:10;}
	.st5{fill:url(#SVGID_2_);}
	.st6{fill:url(#SVGID_3_);}
	.st7{opacity:0.15;fill:url(#SVGID_4_);}
	.st8{opacity:0.15;fill:url(#SVGID_5_);}
	.st9{opacity:0.15;fill:url(#SVGID_6_);}
	.st10{fill:url(#SVGID_7_);}
	.st11{opacity:0.15;fill:url(#SVGID_8_);}
	.st12{opacity:0.15;fill:url(#SVGID_9_);}
	.st13{fill:url(#SVGID_10_);}
	.st14{fill:url(#SVGID_11_);}
	.st15{fill:url(#SVGID_12_);}
	.st16{fill:url(#SVGID_13_);}
	.st17{fill:url(#SVGID_14_);}
	.st18{fill:url(#SVGID_15_);}
	.st19{fill:url(#SVGID_16_);}
	.st20{fill:#8CF4FF;stroke:#FFFF00;stroke-width:2;stroke-miterlimit:10;}
	.st21{fill:url(#SVGID_17_);}
	.st22{fill:url(#SVGID_18_);}
	.st23{fill:url(#SVGID_19_);}
	.st24{opacity:0.2;fill:#FFFFFF;}
	.st25{opacity:0.8;fill:url(#LowYellow_3_);}
	.st26{opacity:0.4;fill:url(#shine_1_);}
	.st27{opacity:0.8;filter:url(#Adobe_OpacityMaskFilter);}
	.st28{mask:url(#SVGID_20_);fill:url(#SVGID_21_);}
	.st29{opacity:0.8;filter:url(#Adobe_OpacityMaskFilter_1_);}
	.st30{mask:url(#SVGID_22_);fill:url(#SVGID_23_);}
	.st31{opacity:0.8;filter:url(#Adobe_OpacityMaskFilter_2_);}
	.st32{fill:#FFFFFF;}
	.st33{opacity:0.15;mask:url(#SVGID_24_);fill:url(#SVGID_25_);}
	.st34{opacity:0.25;fill:url(#SVGID_26_);}
	.st35{opacity:0.25;fill:url(#SVGID_27_);}
	.st36{opacity:0.25;fill:url(#SVGID_28_);}
	.st37{opacity:0.25;fill:url(#SVGID_29_);}
	.st38{opacity:0.25;fill:url(#SVGID_30_);}
	.st39{opacity:0.25;fill:url(#SVGID_31_);}
	.st40{opacity:0.25;fill:url(#SVGID_32_);}
	.st41{opacity:0.25;fill:url(#SVGID_33_);}
	.st42{opacity:0.25;fill:url(#SVGID_34_);}
	.st43{opacity:0.25;fill:url(#SVGID_35_);}
	.st44{opacity:0.25;fill:url(#SVGID_36_);}
	.st45{opacity:0.25;fill:url(#SVGID_37_);}
	.st46{opacity:0.25;fill:url(#SVGID_38_);}
	.st47{opacity:0.25;fill:url(#SVGID_39_);}
	.st48{opacity:0.25;fill:url(#SVGID_40_);}
	.st49{opacity:0.25;fill:url(#SVGID_41_);}
	.st50{opacity:0.25;fill:url(#SVGID_42_);}
	.st51{opacity:0.25;fill:url(#SVGID_43_);}
	.st52{opacity:0.25;fill:url(#SVGID_44_);}
	.st53{opacity:0.25;fill:url(#SVGID_45_);}
	.st54{opacity:0.25;fill:url(#SVGID_46_);}
	.st55{opacity:0.8;fill:url(#LowYellow_4_);}
	.st56{opacity:0.25;fill:url(#SVGID_47_);}
	.st57{opacity:0.25;fill:url(#SVGID_48_);}
	.st58{opacity:0.25;fill:url(#SVGID_49_);}
	.st59{opacity:0.25;fill:url(#SVGID_50_);}
	.st60{opacity:0.25;fill:url(#SVGID_51_);}
	.st61{opacity:0.25;fill:url(#SVGID_52_);}
	.st62{opacity:0.25;fill:url(#SVGID_53_);}
	.st63{opacity:0.25;fill:url(#SVGID_54_);}
	.st64{opacity:0.25;fill:url(#SVGID_55_);}
	.st65{opacity:0.25;fill:url(#SVGID_56_);}
	.st66{opacity:0.25;fill:url(#SVGID_57_);}
	.st67{opacity:0.25;fill:url(#SVGID_58_);}
	.st68{opacity:0.25;fill:url(#SVGID_59_);}
	.st69{opacity:0.25;fill:url(#SVGID_60_);}
	.st70{opacity:0.25;fill:url(#SVGID_61_);}
	.st71{opacity:0.25;fill:url(#SVGID_62_);}
	.st72{opacity:0.25;fill:url(#SVGID_63_);}
	.st73{opacity:0.25;fill:url(#SVGID_64_);}
	.st74{opacity:0.25;fill:url(#SVGID_65_);}
	.st75{opacity:0.25;fill:url(#SVGID_66_);}
	.st76{opacity:0.25;fill:url(#SVGID_67_);}
</style>
<g id="BG">
	<rect x="0" y="0" class="st0" width="2560" height="1440"/>
	<ellipse class="st0" cx="814.5" cy="494.7" rx="74.5" ry="59"/>
	<radialGradient id="SVGID_1_" cx="1280" cy="720" r="720" gradientUnits="userSpaceOnUse">
		<stop  offset="0" style="stop-color:#FFFFFF"/>
		<stop  offset="1" style="stop-color:#FFFFFF;stop-opacity:0"/>
	</radialGradient>
	<circle class="st1" cx="1280" cy="720" r="720"/>
</g>
<g id="artwork">
	<linearGradient id="base_1_" gradientUnits="userSpaceOnUse" x1="1425.0242" y1="971.1893" x2="1134.9758" y2="468.8107">
		<stop  offset="0" style="stop-color:#FFAFCB;stop-opacity:0"/>
		<stop  offset="1" style="stop-color:#E678FF"/>
	</linearGradient>
	<circle id="base" class="st2" cx="1280" cy="720" r="290"/>
	<path class="st3" d="M1280,430c-160.2,0-290,129.8-290,290s129.8,290,290,290s290-129.8,290-290S1440.2,430,1280,430z
		 M1474.5,914.5c-51.9,51.9-121,80.5-194.5,80.5s-142.5-28.6-194.5-80.5c-51.9-51.9-80.5-121-80.5-194.5s28.6-142.5,80.5-194.5
		c51.9-51.9,121-80.5,194.5-80.5s142.5,28.6,194.5,80.5c51.9,51.9,80.5,121,80.5,194.5S1526.4,862.5,1474.5,914.5z"/>
	<path class="st4" d="M1138.6,532.2c22.1-16.7,46.7-29.2,72.9-37.2"/>
	<path class="st4" d="M1138.6,532.2"/>
	<linearGradient id="SVGID_2_" gradientUnits="userSpaceOnUse" x1="1122.2513" y1="545.8054" x2="1122.2513" y2="545.8054">
		<stop  offset="0" style="stop-color:#F6EE1E;stop-opacity:0"/>
		<stop  offset="1" style="stop-color:#5FBAA0"/>
	</linearGradient>
	<path class="st5" d="M1122.3,545.8"/>
	<path class="st4" d="M1096.7,572.9c5.3-6.6,11.1-13,17.1-19.1"/>
	<linearGradient id="SVGID_3_" gradientUnits="userSpaceOnUse" x1="1327.5647" y1="990.9284" x2="1279.631" y2="719.0831">
		<stop  offset="0" style="stop-color:#4268DB"/>
		<stop  offset="1" style="stop-color:#8CF4FF"/>
	</linearGradient>
	<path class="st6" d="M1416.8,696.4c-16.9,1.1-33.8,3.9-50.6,8.8c-41.6,12.1-70.7,33.5-96.5,55.8c-38.4,33.1-69.6,68.2-124,77.5
		c-32.5,5.6-73.5,2-124.1-24.3c0.1,0.3,0.2,0.6,0.4,0.9c0.7,1.8,1.3,3.5,2,5.3c0.3,0.7,0.5,1.3,0.8,1.9c0.6,1.5,1.2,3,1.9,4.5
		c0.3,0.6,0.5,1.3,0.8,1.9c0.7,1.6,1.4,3.3,2.2,4.9c0.2,0.5,0.4,0.9,0.6,1.4c1,2.1,2,4.2,3,6.3c0,0.1,0.1,0.1,0.1,0.2
		c1,2,2,3.9,3,5.9c0.3,0.5,0.6,1.1,0.8,1.6c0.8,1.5,1.6,3.1,2.5,4.6c0.3,0.6,0.6,1.2,1,1.7c0.9,1.6,1.8,3.1,2.7,4.7
		c0.3,0.4,0.5,0.9,0.8,1.3c1.2,2,2.4,4,3.7,6c0,0,0,0,0,0c1.2,1.9,2.5,3.8,3.8,5.7c0.4,0.5,0.7,1,1.1,1.6c1,1.4,1.9,2.8,2.9,4.2
		c0.4,0.6,0.8,1.2,1.3,1.8c1,1.4,2,2.8,3,4.1c0.4,0.5,0.7,1,1.1,1.5c1.4,1.9,2.8,3.7,4.3,5.5c0,0,0.1,0.1,0.1,0.1
		c1.4,1.8,2.9,3.5,4.3,5.2c0.5,0.5,0.9,1.1,1.4,1.6c1.1,1.2,2.1,2.5,3.2,3.7c0.5,0.6,1.1,1.2,1.6,1.8c1.1,1.2,2.2,2.4,3.3,3.6
		c0.5,0.5,1,1.1,1.5,1.6c1.6,1.7,3.2,3.4,4.9,5c51.9,51.9,121,80.5,194.5,80.5s142.5-28.6,194.5-80.5c1.6-1.6,3.2-3.3,4.8-4.9
		c0.6-0.6,1.1-1.2,1.7-1.9c1-1,2-2.1,2.9-3.1c0.7-0.8,1.5-1.6,2.2-2.5c0.8-0.9,1.6-1.7,2.3-2.6c0.8-0.9,1.6-1.9,2.4-2.8
		c0.7-0.8,1.3-1.6,2-2.4c0.8-1,1.7-2.1,2.5-3.1c0.6-0.7,1.2-1.4,1.7-2.2c0.9-1.1,1.7-2.2,2.6-3.4c0.5-0.7,1-1.3,1.5-2
		c0.9-1.2,1.8-2.4,2.6-3.6c0.4-0.6,0.9-1.2,1.3-1.8c0.9-1.3,1.8-2.6,2.7-3.9c0.4-0.5,0.8-1.1,1.1-1.6c0.9-1.4,1.8-2.7,2.7-4.1
		c0.3-0.5,0.7-1,1-1.5c0.9-1.4,1.8-2.9,2.7-4.4c0.3-0.4,0.5-0.9,0.8-1.3c0.9-1.5,1.8-3.1,2.7-4.6c0.2-0.4,0.4-0.8,0.7-1.1
		c0.9-1.6,1.8-3.2,2.7-4.8c0.2-0.3,0.4-0.7,0.5-1c0.9-1.7,1.8-3.4,2.6-5c0.1-0.3,0.3-0.6,0.4-0.8c0.9-1.7,1.7-3.5,2.6-5.3
		c0.1-0.2,0.2-0.5,0.3-0.7c0.9-1.8,1.7-3.6,2.5-5.4c0.1-0.2,0.2-0.4,0.3-0.6c0.8-1.9,1.6-3.7,2.4-5.6c0.1-0.1,0.1-0.3,0.2-0.4
		c0.8-1.9,1.6-3.9,2.3-5.8c0-0.1,0.1-0.2,0.1-0.3c0.8-2,1.5-4,2.3-6c0-0.1,0-0.1,0.1-0.2c0.7-2,1.4-4.1,2.1-6.2c0,0,0-0.1,0-0.1
		c0.7-2.1,1.4-4.2,2-6.3c0,0,0,0,0,0c7.8-25.4,11.9-52.1,12.1-79.4c0,0,0,0,0,0C1511.5,704.3,1464.3,693.4,1416.8,696.4z"/>
	<linearGradient id="SVGID_4_" gradientUnits="userSpaceOnUse" x1="780.0254" y1="429.644" x2="780.0254" y2="581.644">
		<stop  offset="0" style="stop-color:#F6EE1E"/>
		<stop  offset="1" style="stop-color:#5FBAA0"/>
	</linearGradient>
	<circle class="st7" cx="780" cy="505.6" r="76"/>
	<linearGradient id="SVGID_5_" gradientUnits="userSpaceOnUse" x1="780.0254" y1="441.644" x2="780.0254" y2="569.644">
		<stop  offset="0" style="stop-color:#F6EE1E"/>
		<stop  offset="1" style="stop-color:#5FBAA0"/>
	</linearGradient>
	<circle class="st8" cx="780" cy="505.6" r="64"/>
	<linearGradient id="SVGID_6_" gradientUnits="userSpaceOnUse" x1="780.0254" y1="453.644" x2="780.0254" y2="557.644">
		<stop  offset="0" style="stop-color:#F6EE1E"/>
		<stop  offset="1" style="stop-color:#5FBAA0"/>
	</linearGradient>
	<circle class="st9" cx="780" cy="505.6" r="52"/>
	<linearGradient id="SVGID_7_" gradientUnits="userSpaceOnUse" x1="780.0256" y1="465.6438" x2="780.0256" y2="545.6439">
		<stop  offset="0" style="stop-color:#F6EE1E"/>
		<stop  offset="1" style="stop-color:#5FBAA0"/>
	</linearGradient>
	<circle class="st10" cx="780" cy="505.6" r="40"/>
	<linearGradient id="SVGID_8_" gradientUnits="userSpaceOnUse" x1="1764.2969" y1="1064.5469" x2="1764.2969" y2="966.5469">
		<stop  offset="0" style="stop-color:#CD4557"/>
		<stop  offset="1" style="stop-color:#E3B019"/>
	</linearGradient>
	<circle class="st11" cx="1764.3" cy="1015.5" r="49"/>
	<linearGradient id="SVGID_9_" gradientUnits="userSpaceOnUse" x1="1764.2969" y1="1052.5469" x2="1764.2969" y2="978.5469">
		<stop  offset="0" style="stop-color:#CD4557"/>
		<stop  offset="1" style="stop-color:#E3B019"/>
	</linearGradient>
	<circle class="st12" cx="1764.3" cy="1015.5" r="37"/>
	<linearGradient id="SVGID_10_" gradientUnits="userSpaceOnUse" x1="1764.297" y1="1040.5472" x2="1764.297" y2="990.5472">
		<stop  offset="0" style="stop-color:#CD4557"/>
		<stop  offset="1" style="stop-color:#E3B019"/>
	</linearGradient>
	<circle class="st13" cx="1764.3" cy="1015.5" r="25"/>
	<linearGradient id="SVGID_11_" gradientUnits="userSpaceOnUse" x1="1715.2969" y1="415.7154" x2="1715.2969" y2="455.7154">
		<stop  offset="0" style="stop-color:#1F2AD5;stop-opacity:0.1"/>
		<stop  offset="0.9712" style="stop-color:#C838E7"/>
		<stop  offset="1" style="stop-color:#000000"/>
	</linearGradient>
	<circle class="st14" cx="1715.3" cy="435.7" r="20"/>
	<linearGradient id="SVGID_12_" gradientUnits="userSpaceOnUse" x1="856.0254" y1="1007.8372" x2="856.0254" y2="1047.8372">
		<stop  offset="0" style="stop-color:#1F2AD5;stop-opacity:0.1"/>
		<stop  offset="0.9712" style="stop-color:#C838E7"/>
		<stop  offset="1" style="stop-color:#000000"/>
	</linearGradient>
	<circle class="st15" cx="856" cy="1027.8" r="20"/>
	<linearGradient id="SVGID_13_" gradientUnits="userSpaceOnUse" x1="1105.2574" y1="350.6168" x2="1105.2574" y2="370.6168">
		<stop  offset="0" style="stop-color:#F6EE1E;stop-opacity:0"/>
		<stop  offset="1" style="stop-color:#5FBAA0"/>
	</linearGradient>
	<circle class="st16" cx="1105.3" cy="360.6" r="10"/>
	<linearGradient id="SVGID_14_" gradientUnits="userSpaceOnUse" x1="1372.4325" y1="1160.7484" x2="1372.4325" y2="1180.7484">
		<stop  offset="0" style="stop-color:#F6EE1E;stop-opacity:0"/>
		<stop  offset="1" style="stop-color:#5FBAA0"/>
	</linearGradient>
	<circle class="st17" cx="1372.4" cy="1170.7" r="10"/>
	<linearGradient id="SVGID_15_" gradientUnits="userSpaceOnUse" x1="1086.6849" y1="649.0564" x2="1086.6849" y2="669.0564">
		<stop  offset="0" style="stop-color:#F6EE1E;stop-opacity:0"/>
		<stop  offset="1" style="stop-color:#5FBAA0"/>
	</linearGradient>
	<circle class="st18" cx="1086.7" cy="659.1" r="10"/>
	<linearGradient id="SVGID_16_" gradientUnits="userSpaceOnUse" x1="1425.1716" y1="639.0564" x2="1425.1716" y2="659.0564">
		<stop  offset="0" style="stop-color:#F6EE1E;stop-opacity:0"/>
		<stop  offset="1" style="stop-color:#5FBAA0"/>
	</linearGradient>
	<circle class="st19" cx="1425.2" cy="649.1" r="10"/>
	<path class="st20" d="M438.8,790.7l-3.7-36.6c-0.1-0.7-0.6-1.3-1.3-1.4l-36.3-5.9c-1.9-0.3-1.8-3,0.1-3.2l36.6-3.7
		c0.7-0.1,1.3-0.6,1.4-1.3l5.9-36.3c0.3-1.9,3-1.8,3.2,0.1l3.7,36.6c0.1,0.7,0.6,1.3,1.3,1.4l36.3,5.9c1.9,0.3,1.8,3-0.1,3.2
		l-36.6,3.7c-0.7,0.1-1.3,0.6-1.4,1.3l-5.9,36.3C441.7,792.7,439,792.6,438.8,790.7z"/>
	<path class="st20" d="M1422.2,332.7l-3.7-36.6c-0.1-0.7-0.6-1.3-1.3-1.4l-36.3-5.9c-1.9-0.3-1.8-3,0.1-3.2l36.6-3.7
		c0.7-0.1,1.3-0.6,1.4-1.3l5.9-36.3c0.3-1.9,3-1.8,3.2,0.1l3.7,36.6c0.1,0.7,0.6,1.3,1.3,1.4l36.3,5.9c1.9,0.3,1.8,3-0.1,3.2
		l-36.6,3.7c-0.7,0.1-1.3,0.6-1.4,1.3l-5.9,36.3C1425.1,334.7,1422.4,334.6,1422.2,332.7z"/>
	<path class="st20" d="M1813,658.7l-1-10c0-0.2-0.2-0.4-0.4-0.4l-9.9-1.6c-0.5-0.1-0.5-0.8,0-0.9l10-1c0.2,0,0.4-0.2,0.4-0.4
		l1.6-9.9c0.1-0.5,0.8-0.5,0.9,0l1,10c0,0.2,0.2,0.4,0.4,0.4l9.9,1.6c0.5,0.1,0.5,0.8,0,0.9l-10,1c-0.2,0-0.4,0.2-0.4,0.4l-1.6,9.9
		C1813.8,659.2,1813,659.2,1813,658.7z"/>
	<path class="st20" d="M1141.5,1182.9l-1-10c0-0.2-0.2-0.4-0.4-0.4l-9.9-1.6c-0.5-0.1-0.5-0.8,0-0.9l10-1c0.2,0,0.4-0.2,0.4-0.4
		l1.6-9.9c0.1-0.5,0.8-0.5,0.9,0l1,10c0,0.2,0.2,0.4,0.4,0.4l9.9,1.6c0.5,0.1,0.5,0.8,0,0.9l-10,1c-0.2,0-0.4,0.2-0.4,0.4l-1.6,9.9
		C1142.3,1183.4,1141.5,1183.4,1141.5,1182.9z"/>
	<path class="st20" d="M744.7,705c-2.9,2.9-7.7,2.9-10.6,0c-2.9-2.9-2.9-7.7,0-10.6c2.9-2.9,46-35.4,46-35.4S747.6,702.1,744.7,705z
		"/>
	<path class="st20" d="M1065.4,1110.5c-2.9,2.9-7.7,2.9-10.6,0c-2.9-2.9-2.9-7.7,0-10.6c2.9-2.9,46-35.4,46-35.4
		S1068.3,1107.6,1065.4,1110.5z"/>
	<path class="st20" d="M1638.9,264.7c-2.9,2.9-7.7,2.9-10.6,0c-2.9-2.9-2.9-7.7,0-10.6c2.9-2.9,46-35.4,46-35.4
		S1641.8,261.8,1638.9,264.7z"/>
	<path class="st20" d="M1790,814c-2.9,2.9-7.7,2.9-10.6,0c-2.9-2.9-2.9-7.7,0-10.6c2.9-2.9,46-35.4,46-35.4S1792.9,811.1,1790,814z"
		/>
	<path class="st20" d="M1869.8,565.1c-1.5,1.5-4,1.5-5.5,0s-1.5-4,0-5.5c1.5-1.5,23.9-18.4,23.9-18.4S1871.3,563.6,1869.8,565.1z"/>
	<path class="st20" d="M934,645.4c-1.5,1.5-4,1.5-5.5,0c-1.5-1.5-1.5-4,0-5.5s23.9-18.4,23.9-18.4S935.5,643.9,934,645.4z"/>
	<path class="st20" d="M1297.9,1093.2c-1.5,1.5-4,1.5-5.5,0c-1.5-1.5-1.5-4,0-5.5c1.5-1.5,23.9-18.4,23.9-18.4
		S1299.5,1091.7,1297.9,1093.2z"/>
	<linearGradient id="SVGID_17_" gradientUnits="userSpaceOnUse" x1="1328.3354" y1="990.7925" x2="1294.2439" y2="797.4493">
		<stop  offset="0" style="stop-color:#DE009F"/>
		<stop  offset="9.728539e-02" style="stop-color:#DE07A2"/>
		<stop  offset="0.2374" style="stop-color:#DE1AAA"/>
		<stop  offset="0.4036" style="stop-color:#DF39B8"/>
		<stop  offset="0.5897" style="stop-color:#DF65CB"/>
		<stop  offset="0.7924" style="stop-color:#E09DE3"/>
		<stop  offset="1" style="stop-color:#E1DEFF"/>
	</linearGradient>
	<path class="st21" d="M1085.5,914.5c51.9,51.9,121,80.5,194.5,80.5s142.5-28.6,194.5-80.5c33.7-33.7,57.5-74.5,70.1-119.1
		c-52.7-18.8-110.5-27.4-167.4-11.4c-96.6,27.1-121,105.6-205.8,119.7c-29.7,4.9-66.9,1.9-112.7-20.3
		C1066.8,894.2,1075.7,904.7,1085.5,914.5z"/>
	<linearGradient id="SVGID_18_" gradientUnits="userSpaceOnUse" x1="1147.3728" y1="829.8066" x2="1128.2427" y2="661.4608">
		<stop  offset="0" style="stop-color:#4268DB"/>
		<stop  offset="0.2297" style="stop-color:#4771DD"/>
		<stop  offset="0.3059" style="stop-color:#5388E3"/>
		<stop  offset="0.4516" style="stop-color:#68AFED"/>
		<stop  offset="0.5961" style="stop-color:#77CDF5"/>
		<stop  offset="0.7373" style="stop-color:#83E3FA"/>
		<stop  offset="0.8738" style="stop-color:#8AF0FE"/>
		<stop  offset="1" style="stop-color:#8CF4FF"/>
	</linearGradient>
	<path class="st22" d="M1146.5,838.5c54.3-9.3,85.5-44.4,124-77.5c-59.2-16.8-103.7-78.5-179.8-63.6c-30.7,6-60.3,23.2-83.8,46.1
		c2.1,24.4,7.3,48.1,15.5,70.7C1073,840.5,1113.9,844.1,1146.5,838.5z"/>
	<linearGradient id="SVGID_19_" gradientUnits="userSpaceOnUse" x1="1617.2211" y1="994.8867" x2="1458.1221" y2="835.7877">
		<stop  offset="0" style="stop-color:#1F2AD5"/>
		<stop  offset="0.9712" style="stop-color:#C838E7"/>
		<stop  offset="1" style="stop-color:#000000"/>
	</linearGradient>
	<circle class="st23" cx="1537.7" cy="915.3" r="112.5"/>
	<path class="st24" d="M1474.5,525.5c-34.9-34.9-77.6-59.3-124.2-71.5c8.4,6.7,16.5,13.8,24.2,21.5c51.9,51.9,80.5,121,80.5,194.5
		s-28.6,142.5-80.5,194.5S1253.5,945,1180,945c-24,0-47.6-3.1-70.3-9c48.3,38.3,107.7,59,170.3,59c73.5,0,142.5-28.6,194.5-80.5
		s80.5-121,80.5-194.5S1526.4,577.5,1474.5,525.5z"/>
	<linearGradient id="LowYellow_3_" gradientUnits="userSpaceOnUse" x1="1374.1052" y1="978.5523" x2="1185.8945" y2="461.4475">
		<stop  offset="0" style="stop-color:#DFFF3B"/>
		<stop  offset="8.068246e-02" style="stop-color:#E3FF55;stop-opacity:0.9193"/>
		<stop  offset="0.178" style="stop-color:#E7FF6C;stop-opacity:0.822"/>
		<stop  offset="0.2901" style="stop-color:#EAFF7E;stop-opacity:0.7099"/>
		<stop  offset="0.4241" style="stop-color:#ECFF8B;stop-opacity:0.5759"/>
		<stop  offset="0.602" style="stop-color:#EEFF92;stop-opacity:0.398"/>
		<stop  offset="1" style="stop-color:#EEFF94;stop-opacity:0"/>
	</linearGradient>
	<path id="LowYellow" class="st25" d="M1280,995c-73.5,0-142.5-28.6-194.5-80.5c-51.9-51.9-80.5-121-80.5-194.5
		s28.6-142.5,80.5-194.5c51.9-51.9,121-80.5,194.5-80.5s142.5,28.6,194.5,80.5c51.9,51.9,80.5,121,80.5,194.5
		s-28.6,142.5-80.5,194.5S1353.5,995,1280,995z"/>
	<linearGradient id="shine_1_" gradientUnits="userSpaceOnUse" x1="1485.0609" y1="925.061" x2="1074.9391" y2="514.939">
		<stop  offset="0" style="stop-color:#FFFFFF;stop-opacity:0"/>
		<stop  offset="1" style="stop-color:#FFFFFF"/>
	</linearGradient>
	<circle id="shine" class="st26" cx="1280" cy="720" r="290"/>
	<defs>
		<filter id="Adobe_OpacityMaskFilter" filterUnits="userSpaceOnUse" x="844.3" y="403.2" width="871.5" height="633.6">
			<feFlood  style="flood-color:white;flood-opacity:1" result="back"/>
			<feBlend  in="SourceGraphic" in2="back" mode="normal"/>
		</filter>
	</defs>
	<mask maskUnits="userSpaceOnUse" x="844.3" y="403.2" width="871.5" height="633.6" id="SVGID_20_" style="opacity:0.8;">
		<g class="st27">
			<path d="M1507.6,540.3C1454.5,473.1,1372.3,430,1280,430c-160.2,0-290,129.8-290,290c0,47.3,11.3,91.9,31.4,131.4L1507.6,540.3z"
				/>
		</g>
	</mask>
	<linearGradient id="SVGID_21_" gradientUnits="userSpaceOnUse" x1="1362.0077" y1="817.6225" x2="1197.6976" y2="621.8055">
		<stop  offset="0" style="stop-color:#CB5180"/>
		<stop  offset="0.1317" style="stop-color:#BE507C"/>
		<stop  offset="0.374" style="stop-color:#9D4D73"/>
		<stop  offset="0.6972" style="stop-color:#674964"/>
		<stop  offset="1" style="stop-color:#2E4454"/>
		<stop  offset="1" style="stop-color:#FFFFFF"/>
	</linearGradient>
	<path class="st28" d="M1710.2,418.9c-38-54.3-261.4,36.5-498.9,202.8C975,787.2,810.8,965.1,850.1,1021.2
		c38,54.3,261.4-37.5,498.9-203.8S1748.2,473.2,1710.2,418.9z M1337.5,801c-223.9,156.8-431.2,248.2-462.8,203
		c-32.9-47,125.4-209.9,348.1-365.8c223.9-156.8,431.2-247.2,462.8-202C1717.3,481.4,1561.4,644.2,1337.5,801z"/>
	<defs>
		<filter id="Adobe_OpacityMaskFilter_1_" filterUnits="userSpaceOnUse" x="844.3" y="403.2" width="871.5" height="633.6">
			<feFlood  style="flood-color:white;flood-opacity:1" result="back"/>
			<feBlend  in="SourceGraphic" in2="back" mode="normal"/>
		</filter>
	</defs>
	<mask maskUnits="userSpaceOnUse" x="844.3" y="403.2" width="871.5" height="633.6" id="SVGID_22_" style="opacity:0.8;">
		<g class="st29">
			<path d="M1507.6,540.3C1454.5,473.1,1372.3,430,1280,430c-160.2,0-290,129.8-290,290c0,47.3,11.3,91.9,31.4,131.4L1507.6,540.3z"
				/>
		</g>
	</mask>
	<linearGradient id="SVGID_23_" gradientUnits="userSpaceOnUse" x1="1362.0077" y1="817.6225" x2="1197.6976" y2="621.8055">
		<stop  offset="0" style="stop-color:#CB5180"/>
		<stop  offset="1.584900e-03" style="stop-color:#CA5180;stop-opacity:0.9982"/>
		<stop  offset="0.1304" style="stop-color:#953C5E;stop-opacity:0.8539"/>
		<stop  offset="0.2607" style="stop-color:#682941;stop-opacity:0.708"/>
		<stop  offset="0.3902" style="stop-color:#421A2A;stop-opacity:0.5629"/>
		<stop  offset="0.5187" style="stop-color:#250F17;stop-opacity:0.419"/>
		<stop  offset="0.646" style="stop-color:#11070A;stop-opacity:0.2764"/>
		<stop  offset="0.7714" style="stop-color:#040203;stop-opacity:0.136"/>
		<stop  offset="0.8928" style="stop-color:#000000;stop-opacity:0"/>
		<stop  offset="1" style="stop-color:#2E4454"/>
	</linearGradient>
	<path class="st30" d="M1710.2,418.9c-38-54.3-261.4,36.5-498.9,202.8C975,787.2,810.8,965.1,850.1,1021.2
		c38,54.3,261.4-37.5,498.9-203.8S1748.2,473.2,1710.2,418.9z M1337.5,801c-223.9,156.8-431.2,248.2-462.8,203
		c-32.9-47,125.4-209.9,348.1-365.8c223.9-156.8,431.2-247.2,462.8-202C1717.3,481.4,1561.4,644.2,1337.5,801z"/>
	<defs>
		<filter id="Adobe_OpacityMaskFilter_2_" filterUnits="userSpaceOnUse" x="846.3" y="464.2" width="871.5" height="633.6">
			<feColorMatrix  type="matrix" values="1 0 0 0 0  0 1 0 0 0  0 0 1 0 0  0 0 0 1 0"/>
		</filter>
	</defs>
	<mask maskUnits="userSpaceOnUse" x="846.3" y="464.2" width="871.5" height="633.6" id="SVGID_24_" style="opacity:0.8;">
		<g class="st31">
			<path id="LowYellow_1_" class="st32" d="M1280,995c-73.5,0-142.5-28.6-194.5-80.5c-51.9-51.9-80.5-121-80.5-194.5
				s28.6-142.5,80.5-194.5c51.9-51.9,121-80.5,194.5-80.5s142.5,28.6,194.5,80.5c51.9,51.9,80.5,121,80.5,194.5
				s-28.6,142.5-80.5,194.5S1353.5,995,1280,995z"/>
		</g>
	</mask>
	<linearGradient id="SVGID_25_" gradientUnits="userSpaceOnUse" x1="1364.0077" y1="878.6225" x2="1199.6976" y2="682.8055">
		<stop  offset="0" style="stop-color:#CB5180"/>
		<stop  offset="1.745001e-03" style="stop-color:#CA5180;stop-opacity:0.9982"/>
		<stop  offset="0.1436" style="stop-color:#953C5E;stop-opacity:0.8539"/>
		<stop  offset="0.287" style="stop-color:#682941;stop-opacity:0.708"/>
		<stop  offset="0.4296" style="stop-color:#421A2A;stop-opacity:0.5629"/>
		<stop  offset="0.5711" style="stop-color:#250F17;stop-opacity:0.419"/>
		<stop  offset="0.7112" style="stop-color:#11070A;stop-opacity:0.2764"/>
		<stop  offset="0.8493" style="stop-color:#040203;stop-opacity:0.136"/>
		<stop  offset="0.983" style="stop-color:#000000;stop-opacity:0"/>
		<stop  offset="1" style="stop-color:#2E4454"/>
	</linearGradient>
	<path class="st33" d="M1712.2,479.9c-38-54.3-261.4,36.5-498.9,202.8C977,848.2,812.8,1026.1,852.1,1082.2
		c38,54.3,261.4-37.5,498.9-203.8S1750.2,534.2,1712.2,479.9z M1339.5,862c-223.9,156.8-431.2,248.2-462.8,203
		c-32.9-47,125.4-209.9,348.1-365.8c223.9-156.8,431.2-247.2,462.8-202C1719.3,542.4,1563.4,705.2,1339.5,862z"/>
	<linearGradient id="SVGID_26_" gradientUnits="userSpaceOnUse" x1="1122.2513" y1="754.4326" x2="1122.2513" y2="774.4326">
		<stop  offset="0" style="stop-color:#F6EE1E;stop-opacity:0"/>
		<stop  offset="1" style="stop-color:#5FBAA0"/>
	</linearGradient>
	<circle class="st34" cx="1122.3" cy="764.4" r="10"/>
	<linearGradient id="SVGID_27_" gradientUnits="userSpaceOnUse" x1="1095.2574" y1="782.1567" x2="1095.2574" y2="802.1567">
		<stop  offset="0" style="stop-color:#F6EE1E;stop-opacity:0"/>
		<stop  offset="1" style="stop-color:#5FBAA0"/>
	</linearGradient>
	<circle class="st35" cx="1095.3" cy="792.2" r="10"/>
	<linearGradient id="SVGID_28_" gradientUnits="userSpaceOnUse" x1="1076.6849" y1="845.4561" x2="1076.6849" y2="865.4561">
		<stop  offset="0" style="stop-color:#F6EE1E;stop-opacity:0"/>
		<stop  offset="1" style="stop-color:#5FBAA0"/>
	</linearGradient>
	<circle class="st36" cx="1076.7" cy="855.5" r="10"/>
	<linearGradient id="SVGID_29_" gradientUnits="userSpaceOnUse" x1="1132.2513" y1="845.4561" x2="1132.2513" y2="865.4561">
		<stop  offset="0" style="stop-color:#F6EE1E;stop-opacity:0"/>
		<stop  offset="1" style="stop-color:#5FBAA0"/>
	</linearGradient>
	<circle class="st37" cx="1132.3" cy="855.5" r="10"/>
	<linearGradient id="SVGID_30_" gradientUnits="userSpaceOnUse" x1="1215.9857" y1="921.4155" x2="1215.9857" y2="955.3372">
		<stop  offset="0" style="stop-color:#F6EE1E;stop-opacity:0"/>
		<stop  offset="1" style="stop-color:#5FBAA0"/>
	</linearGradient>
	<ellipse class="st38" cx="1216" cy="938.4" rx="13.6" ry="17"/>
	<linearGradient id="SVGID_31_" gradientUnits="userSpaceOnUse" x1="1304.481" y1="861.8318" x2="1304.481" y2="895.7535">
		<stop  offset="0" style="stop-color:#F6EE1E;stop-opacity:0"/>
		<stop  offset="1" style="stop-color:#5FBAA0"/>
	</linearGradient>
	<ellipse class="st39" cx="1304.5" cy="878.8" rx="13.6" ry="17"/>
	<linearGradient id="SVGID_32_" gradientUnits="userSpaceOnUse" x1="1323.7838" y1="736.4658" x2="1323.7838" y2="756.4658">
		<stop  offset="0" style="stop-color:#F6EE1E;stop-opacity:0"/>
		<stop  offset="1" style="stop-color:#5FBAA0"/>
	</linearGradient>
	<circle class="st40" cx="1323.8" cy="746.5" r="10"/>
	<linearGradient id="SVGID_33_" gradientUnits="userSpaceOnUse" x1="1185.08" y1="845.4561" x2="1185.08" y2="865.4561">
		<stop  offset="0" style="stop-color:#F6EE1E;stop-opacity:0"/>
		<stop  offset="1" style="stop-color:#5FBAA0"/>
	</linearGradient>
	<circle class="st41" cx="1185.1" cy="855.5" r="10"/>
	<linearGradient id="SVGID_34_" gradientUnits="userSpaceOnUse" x1="1260.4216" y1="956.5469" x2="1260.4216" y2="976.5469">
		<stop  offset="0" style="stop-color:#F6EE1E;stop-opacity:0"/>
		<stop  offset="1" style="stop-color:#5FBAA0"/>
	</linearGradient>
	<circle class="st42" cx="1260.4" cy="966.5" r="10"/>
	<linearGradient id="SVGID_35_" gradientUnits="userSpaceOnUse" x1="1323.7838" y1="915.3372" x2="1323.7838" y2="935.3372">
		<stop  offset="0" style="stop-color:#F6EE1E;stop-opacity:0"/>
		<stop  offset="1" style="stop-color:#5FBAA0"/>
	</linearGradient>
	<circle class="st43" cx="1323.8" cy="925.3" r="10"/>
	<linearGradient id="SVGID_36_" gradientUnits="userSpaceOnUse" x1="1343.7838" y1="855.4561" x2="1343.7838" y2="875.4561">
		<stop  offset="0" style="stop-color:#F6EE1E;stop-opacity:0"/>
		<stop  offset="1" style="stop-color:#5FBAA0"/>
	</linearGradient>
	<circle class="st44" cx="1343.8" cy="865.5" r="10"/>
	<linearGradient id="SVGID_37_" gradientUnits="userSpaceOnUse" x1="1411.5668" y1="800.7475" x2="1411.5668" y2="834.6691">
		<stop  offset="0" style="stop-color:#F6EE1E;stop-opacity:0"/>
		<stop  offset="1" style="stop-color:#5FBAA0"/>
	</linearGradient>
	<ellipse class="st45" cx="1411.6" cy="817.7" rx="13.6" ry="17"/>
	<linearGradient id="SVGID_38_" gradientUnits="userSpaceOnUse" x1="1392.4325" y1="875.2784" x2="1392.4325" y2="895.2784">
		<stop  offset="0" style="stop-color:#F6EE1E;stop-opacity:0"/>
		<stop  offset="1" style="stop-color:#5FBAA0"/>
	</linearGradient>
	<circle class="st46" cx="1392.4" cy="885.3" r="10"/>
	<linearGradient id="SVGID_39_" gradientUnits="userSpaceOnUse" x1="1382.4325" y1="935.3372" x2="1382.4325" y2="955.3372">
		<stop  offset="0" style="stop-color:#F6EE1E;stop-opacity:0"/>
		<stop  offset="1" style="stop-color:#5FBAA0"/>
	</linearGradient>
	<circle class="st47" cx="1382.4" cy="945.3" r="10"/>
	<linearGradient id="SVGID_40_" gradientUnits="userSpaceOnUse" x1="1425.1716" y1="885.2784" x2="1425.1716" y2="905.2784">
		<stop  offset="0" style="stop-color:#F6EE1E;stop-opacity:0"/>
		<stop  offset="1" style="stop-color:#5FBAA0"/>
	</linearGradient>
	<circle class="st48" cx="1425.2" cy="895.3" r="10"/>
	<linearGradient id="SVGID_41_" gradientUnits="userSpaceOnUse" x1="1446.9513" y1="800.7475" x2="1446.9513" y2="820.7475">
		<stop  offset="0" style="stop-color:#F6EE1E;stop-opacity:0"/>
		<stop  offset="1" style="stop-color:#5FBAA0"/>
	</linearGradient>
	<circle class="st49" cx="1447" cy="810.7" r="10"/>
	<linearGradient id="SVGID_42_" gradientUnits="userSpaceOnUse" x1="1411.5668" y1="717.4478" x2="1411.5668" y2="737.4478">
		<stop  offset="0" style="stop-color:#F6EE1E;stop-opacity:0"/>
		<stop  offset="1" style="stop-color:#5FBAA0"/>
	</linearGradient>
	<circle class="st50" cx="1411.6" cy="727.4" r="10"/>
	<linearGradient id="SVGID_43_" gradientUnits="userSpaceOnUse" x1="1470.8625" y1="845.4561" x2="1470.8625" y2="865.4561">
		<stop  offset="0" style="stop-color:#F6EE1E;stop-opacity:0"/>
		<stop  offset="1" style="stop-color:#5FBAA0"/>
	</linearGradient>
	<circle class="st51" cx="1470.9" cy="855.5" r="10"/>
	<linearGradient id="SVGID_44_" gradientUnits="userSpaceOnUse" x1="1523.8196" y1="764.4326" x2="1523.8196" y2="784.4326">
		<stop  offset="0" style="stop-color:#F6EE1E;stop-opacity:0"/>
		<stop  offset="1" style="stop-color:#5FBAA0"/>
	</linearGradient>
	<circle class="st52" cx="1523.8" cy="774.4" r="10"/>
	<linearGradient id="SVGID_45_" gradientUnits="userSpaceOnUse" x1="1366.601" y1="717.4478" x2="1366.601" y2="737.4478">
		<stop  offset="0" style="stop-color:#F6EE1E;stop-opacity:0"/>
		<stop  offset="1" style="stop-color:#5FBAA0"/>
	</linearGradient>
	<circle class="st53" cx="1366.6" cy="727.4" r="10"/>
	<linearGradient id="SVGID_46_" gradientUnits="userSpaceOnUse" x1="1112.2513" y1="895.2784" x2="1112.2513" y2="915.2784">
		<stop  offset="0" style="stop-color:#F6EE1E;stop-opacity:0"/>
		<stop  offset="1" style="stop-color:#5FBAA0"/>
	</linearGradient>
	<circle class="st54" cx="1112.3" cy="905.3" r="10"/>
	<linearGradient id="LowYellow_4_" gradientUnits="userSpaceOnUse" x1="1374.1052" y1="978.5523" x2="1185.8945" y2="461.4475">
		<stop  offset="0" style="stop-color:#DFFF3B"/>
		<stop  offset="8.068246e-02" style="stop-color:#E3FF55;stop-opacity:0.9193"/>
		<stop  offset="0.178" style="stop-color:#E7FF6C;stop-opacity:0.822"/>
		<stop  offset="0.2901" style="stop-color:#EAFF7E;stop-opacity:0.7099"/>
		<stop  offset="0.4241" style="stop-color:#ECFF8B;stop-opacity:0.5759"/>
		<stop  offset="0.602" style="stop-color:#EEFF92;stop-opacity:0.398"/>
		<stop  offset="1" style="stop-color:#EEFF94;stop-opacity:0"/>
	</linearGradient>
	<path id="LowYellow_2_" class="st55" d="M1280,995c-73.5,0-142.5-28.6-194.5-80.5c-51.9-51.9-80.5-121-80.5-194.5
		s28.6-142.5,80.5-194.5c51.9-51.9,121-80.5,194.5-80.5s142.5,28.6,194.5,80.5c51.9,51.9,80.5,121,80.5,194.5
		s-28.6,142.5-80.5,194.5S1353.5,995,1280,995z"/>
	<linearGradient id="SVGID_47_" gradientUnits="userSpaceOnUse" x1="1142.2513" y1="712.572" x2="1142.2513" y2="727.4478">
		<stop  offset="0" style="stop-color:#F6EE1E;stop-opacity:0"/>
		<stop  offset="1" style="stop-color:#5FBAA0"/>
	</linearGradient>
	<ellipse class="st56" cx="1142.3" cy="720" rx="7.3" ry="7.4"/>
	<linearGradient id="SVGID_48_" gradientUnits="userSpaceOnUse" x1="1086.6849" y1="729.0278" x2="1086.6849" y2="743.9037">
		<stop  offset="0" style="stop-color:#F6EE1E;stop-opacity:0"/>
		<stop  offset="1" style="stop-color:#5FBAA0"/>
	</linearGradient>
	<ellipse class="st57" cx="1086.7" cy="736.5" rx="7.3" ry="7.4"/>
	<linearGradient id="SVGID_49_" gradientUnits="userSpaceOnUse" x1="1174.01" y1="756.6957" x2="1174.01" y2="771.5716">
		<stop  offset="0" style="stop-color:#F6EE1E;stop-opacity:0"/>
		<stop  offset="1" style="stop-color:#5FBAA0"/>
	</linearGradient>
	<ellipse class="st58" cx="1174" cy="764.1" rx="7.3" ry="7.4"/>
	<linearGradient id="SVGID_50_" gradientUnits="userSpaceOnUse" x1="1150.042" y1="805.3993" x2="1150.042" y2="820.2751">
		<stop  offset="0" style="stop-color:#F6EE1E;stop-opacity:0"/>
		<stop  offset="1" style="stop-color:#5FBAA0"/>
	</linearGradient>
	<ellipse class="st59" cx="1150" cy="812.8" rx="7.3" ry="7.4"/>
	<linearGradient id="SVGID_51_" gradientUnits="userSpaceOnUse" x1="1208.322" y1="812.2634" x2="1208.322" y2="827.1392">
		<stop  offset="0" style="stop-color:#F6EE1E;stop-opacity:0"/>
		<stop  offset="1" style="stop-color:#5FBAA0"/>
	</linearGradient>
	<ellipse class="st60" cx="1208.3" cy="819.7" rx="7.3" ry="7.4"/>
	<linearGradient id="SVGID_52_" gradientUnits="userSpaceOnUse" x1="1243.6187" y1="758.2501" x2="1243.6187" y2="773.1259">
		<stop  offset="0" style="stop-color:#F6EE1E;stop-opacity:0"/>
		<stop  offset="1" style="stop-color:#5FBAA0"/>
	</linearGradient>
	<ellipse class="st61" cx="1243.6" cy="765.7" rx="7.3" ry="7.4"/>
	<linearGradient id="SVGID_53_" gradientUnits="userSpaceOnUse" x1="1243.6187" y1="834.4449" x2="1243.6187" y2="849.3207">
		<stop  offset="0" style="stop-color:#F6EE1E;stop-opacity:0"/>
		<stop  offset="1" style="stop-color:#5FBAA0"/>
	</linearGradient>
	<ellipse class="st62" cx="1243.6" cy="841.9" rx="7.3" ry="7.4"/>
	<linearGradient id="SVGID_54_" gradientUnits="userSpaceOnUse" x1="1202.3809" y1="789.9496" x2="1202.3809" y2="804.8254">
		<stop  offset="0" style="stop-color:#F6EE1E;stop-opacity:0"/>
		<stop  offset="1" style="stop-color:#5FBAA0"/>
	</linearGradient>
	<ellipse class="st63" cx="1202.4" cy="797.4" rx="7.3" ry="7.4"/>
	<linearGradient id="SVGID_55_" gradientUnits="userSpaceOnUse" x1="1236.3176" y1="880.0158" x2="1236.3176" y2="894.8916">
		<stop  offset="0" style="stop-color:#F6EE1E;stop-opacity:0"/>
		<stop  offset="1" style="stop-color:#5FBAA0"/>
	</linearGradient>
	<ellipse class="st64" cx="1236.3" cy="887.5" rx="7.3" ry="7.4"/>
	<linearGradient id="SVGID_56_" gradientUnits="userSpaceOnUse" x1="1282.5781" y1="849.3644" x2="1282.5781" y2="864.2402">
		<stop  offset="0" style="stop-color:#F6EE1E;stop-opacity:0"/>
		<stop  offset="1" style="stop-color:#5FBAA0"/>
	</linearGradient>
	<ellipse class="st65" cx="1282.6" cy="856.8" rx="7.3" ry="7.4"/>
	<linearGradient id="SVGID_57_" gradientUnits="userSpaceOnUse" x1="1297.1801" y1="804.8254" x2="1297.1801" y2="819.7012">
		<stop  offset="0" style="stop-color:#F6EE1E;stop-opacity:0"/>
		<stop  offset="1" style="stop-color:#5FBAA0"/>
	</linearGradient>
	<ellipse class="st66" cx="1297.2" cy="812.3" rx="7.3" ry="7.4"/>
	<linearGradient id="SVGID_58_" gradientUnits="userSpaceOnUse" x1="1309.5386" y1="771.5716" x2="1309.5386" y2="786.4474">
		<stop  offset="0" style="stop-color:#F6EE1E;stop-opacity:0"/>
		<stop  offset="1" style="stop-color:#5FBAA0"/>
	</linearGradient>
	<ellipse class="st67" cx="1309.5" cy="779" rx="7.3" ry="7.4"/>
	<linearGradient id="SVGID_59_" gradientUnits="userSpaceOnUse" x1="1332.6982" y1="819.5691" x2="1332.6982" y2="834.4449">
		<stop  offset="0" style="stop-color:#F6EE1E;stop-opacity:0"/>
		<stop  offset="1" style="stop-color:#5FBAA0"/>
	</linearGradient>
	<ellipse class="st68" cx="1332.7" cy="827" rx="7.3" ry="7.4"/>
	<linearGradient id="SVGID_60_" gradientUnits="userSpaceOnUse" x1="1268.7115" y1="891.2093" x2="1268.7115" y2="906.0851">
		<stop  offset="0" style="stop-color:#F6EE1E;stop-opacity:0"/>
		<stop  offset="1" style="stop-color:#5FBAA0"/>
	</linearGradient>
	<ellipse class="st69" cx="1268.7" cy="898.6" rx="7.3" ry="7.4"/>
	<linearGradient id="SVGID_61_" gradientUnits="userSpaceOnUse" x1="1356.601" y1="827.007" x2="1356.601" y2="841.8828">
		<stop  offset="0" style="stop-color:#F6EE1E;stop-opacity:0"/>
		<stop  offset="1" style="stop-color:#5FBAA0"/>
	</linearGradient>
	<ellipse class="st70" cx="1356.6" cy="834.4" rx="7.3" ry="7.4"/>
	<linearGradient id="SVGID_62_" gradientUnits="userSpaceOnUse" x1="1349.2999" y1="771.5716" x2="1349.2999" y2="786.4474">
		<stop  offset="0" style="stop-color:#F6EE1E;stop-opacity:0"/>
		<stop  offset="1" style="stop-color:#5FBAA0"/>
	</linearGradient>
	<ellipse class="st71" cx="1349.3" cy="779" rx="7.3" ry="7.4"/>
	<linearGradient id="SVGID_63_" gradientUnits="userSpaceOnUse" x1="1471.0264" y1="744.5609" x2="1471.0264" y2="769.7915">
		<stop  offset="0" style="stop-color:#F6EE1E;stop-opacity:0"/>
		<stop  offset="1" style="stop-color:#5FBAA0"/>
	</linearGradient>
	<ellipse class="st72" cx="1471" cy="757.2" rx="9.9" ry="12.6"/>
	<linearGradient id="SVGID_64_" gradientUnits="userSpaceOnUse" x1="1435.1716" y1="838.0182" x2="1435.1716" y2="852.894">
		<stop  offset="0" style="stop-color:#F6EE1E;stop-opacity:0"/>
		<stop  offset="1" style="stop-color:#5FBAA0"/>
	</linearGradient>
	<ellipse class="st73" cx="1435.2" cy="845.5" rx="7.3" ry="7.4"/>
	<linearGradient id="SVGID_65_" gradientUnits="userSpaceOnUse" x1="1428.6234" y1="737.123" x2="1428.6234" y2="751.9988">
		<stop  offset="0" style="stop-color:#F6EE1E;stop-opacity:0"/>
		<stop  offset="1" style="stop-color:#5FBAA0"/>
	</linearGradient>
	<ellipse class="st74" cx="1428.6" cy="744.6" rx="7.3" ry="7.4"/>
	<linearGradient id="SVGID_66_" gradientUnits="userSpaceOnUse" x1="1478.1636" y1="813.3096" x2="1478.1636" y2="828.1854">
		<stop  offset="0" style="stop-color:#F6EE1E;stop-opacity:0"/>
		<stop  offset="1" style="stop-color:#5FBAA0"/>
	</linearGradient>
	<ellipse class="st75" cx="1478.2" cy="820.7" rx="7.3" ry="7.4"/>
	<linearGradient id="SVGID_67_" gradientUnits="userSpaceOnUse" x1="1157.3429" y1="895.2784" x2="1157.3429" y2="910.1543">
		<stop  offset="0" style="stop-color:#F6EE1E;stop-opacity:0"/>
		<stop  offset="1" style="stop-color:#5FBAA0"/>
	</linearGradient>
	<ellipse class="st76" cx="1157.3" cy="902.7" rx="7.3" ry="7.4"/>
</g>
</svg>
