<svg id="Layer_1" data-name="Layer 1" xmlns="http://www.w3.org/2000/svg" viewBox="0 0 915.79 939.03"><defs><style>.cls-1{stroke:#000;stroke-miterlimit:10;}</style></defs><title>sun-silhoutte</title><path class="cls-1" d="M818.05,208.8,877.78,47,935.85,208.8S867.73,194.6,818.05,208.8Z" transform="translate(-419.3 -45.56)"/><path class="cls-1" d="M630,336.88,560.28,179.17,714.6,254.86S655.82,292.11,630,336.88Z" transform="translate(-419.3 -45.56)"/><path class="cls-1" d="M584.06,572.43,420.76,517l160.18-62.34S568.56,523.15,584.06,572.43Z" transform="translate(-419.3 -45.56)"/><ellipse class="cls-1" cx="467.51" cy="467.99" rx="263.11" ry="277.74"/><path class="cls-1" d="M1064.59,259,1218,180.27,1151.35,338.7S1110.77,282.17,1064.59,259Z" transform="translate(-419.3 -45.56)"/><path class="cls-1" d="M1169.84,454.69l163.8,53.95L1174,572.41S1185.79,503.83,1169.84,454.69Z" transform="translate(-419.3 -45.56)"/><path class="cls-1" d="M724.06,782.4l-163.78,54,90.43-146.16S682,752.37,724.06,782.4Z" transform="translate(-419.3 -45.56)"/><path class="cls-1" d="M936.68,820.63,878.93,983.12l-60-161S887.18,835.43,936.68,820.63Z" transform="translate(-419.3 -45.56)"/><path class="cls-1" d="M1148.34,687.29l81.36,152L1070.15,775.4S1126,733.86,1148.34,687.29Z" transform="translate(-419.3 -45.56)"/></svg>